<?xml version="1.0" encoding="UTF-8" standalone="no"?>
<svg
   xmlns:dc="http://purl.org/dc/elements/1.1/"
   xmlns:cc="http://creativecommons.org/ns#"
   xmlns:rdf="http://www.w3.org/1999/02/22-rdf-syntax-ns#"
   xmlns:svg="http://www.w3.org/2000/svg"
   xmlns="http://www.w3.org/2000/svg"
   viewBox="0 0 2183.7854 336.59331"
   height="336.59332"
   width="2183.7854"
   xml:space="preserve"
   id="svg2"
   version="1.1"><metadata
     id="metadata8"><rdf:RDF><cc:Work
         rdf:about=""><dc:format>image/svg+xml</dc:format><dc:type
           rdf:resource="http://purl.org/dc/dcmitype/StillImage" /></cc:Work></rdf:RDF></metadata><defs
     id="defs6" /><g
     transform="matrix(1.3333333,0,0,-1.3333333,-189.28133,771.23198)"
     id="g10"><g
       transform="scale(0.1)"
       id="g12"><path
         id="path14"
         style="fill:#1f335e;fill-opacity:1;fill-rule:nonzero;stroke:none"
         d="m 2194.39,3929.56 c -125.64,0 -251.28,29.89 -382.9,29.89 -125.62,-0.01 -191.41,-11.97 -287.13,-11.97 -29.92,-0.01 -50.85,3 -50.85,32.87 -0.01,29.96 17.94,35.94 83.73,35.95 134.61,0 140.62,5.96 140.61,50.79 l -0.04,1376.11 c -0.01,236.3 -47.92,263.23 -131.63,263.23 -134.63,-0.01 -146.57,3 -146.57,38.88 0,20.95 8.94,23.94 59.79,23.95 92.76,0 185.47,-2.99 290.17,-2.98 62.81,0 206.41,17.95 475.59,17.96 388.9,0.01 556.41,-200.4 556.41,-412.78 0.01,-212.41 -128.62,-317.11 -224.34,-382.92 -56.85,-38.91 -122.67,-71.8 -122.67,-80.78 0,-5.97 56.85,-20.92 116.7,-50.84 140.56,-71.8 317.09,-173.5 317.1,-433.79 0.01,-335.02 -278.17,-493.55 -693.97,-493.57 m -38.97,1782.89 c -197.42,-0.01 -206.36,-26.91 -206.36,-86.74 l 0.02,-649.18 c 0.01,-47.86 38.86,-41.87 110.67,-41.87 182.45,0.01 308.08,-17.93 308.08,-17.93 86.73,65.8 185.48,122.66 185.47,358.96 0,149.57 -125.65,436.77 -397.88,436.76 m -98.63,-834.58 c -83.76,0 -107.7,-12 -107.7,-77.83 l 0.02,-535.44 c 0,-26.98 8.95,-194.43 35.87,-224.4 32.92,-35.87 128.62,-56.81 224.38,-56.81 227.29,0.01 394.81,155.59 394.8,415.81 0,269.28 -221.34,478.69 -547.37,478.67" /><path
         id="path16"
         style="fill:#1f335e;fill-opacity:1;fill-rule:nonzero;stroke:none"
         d="m 3841.91,4672.48 c -67.64,-15.63 -327.83,-72.91 -624.38,-91.11 -41.67,-2.63 -49.48,-15.63 -49.47,-75.47 0.01,-359.08 278.39,-455.31 476.18,-455.3 171.68,0 265.36,62.45 280.97,62.45 13.01,0 20.82,-15.61 20.82,-20.83 0,-12.96 -221.15,-176.93 -431.93,-176.94 -213.29,0 -530.73,104.07 -530.74,538.57 -0.02,366.88 247.16,585.48 483.88,585.49 135.32,0 301.83,-85.89 395.48,-195.17 44.26,-52.02 85.88,-114.45 85.89,-135.25 0,-10.43 -36.41,-20.83 -106.7,-36.44 m -400.66,312.17 c -197.74,-0.01 -260.18,-296.59 -260.18,-333.05 0,-13.02 0,-15.6 31.25,-15.6 135.29,0.01 275.75,33.87 470.88,65.09 28.64,5.19 31.25,10.4 31.25,26.01 0,65.04 -153.5,257.55 -273.2,257.55" /><path
         id="path18"
         style="fill:#1f335e;fill-opacity:1;fill-rule:nonzero;stroke:none"
         d="m 4794.14,4742.77 c -36.41,0 -67.64,106.66 -197.75,106.66 -150.87,0 -208.11,-62.45 -208.1,-171.72 l 0.01,-536.01 c 0,-127.49 7.81,-127.49 200.33,-127.48 67.64,0 70.23,-7.81 70.23,-31.25 0,-28.65 -2.59,-26.02 -70.23,-26.02 -36.44,0 -210.74,13 -294,13 -88.46,0 -176.9,-13.02 -213.33,-13.02 -59.86,0 -65.09,0 -65.09,26.03 0,26.04 2.62,31.24 65.09,31.24 106.66,0 114.46,2.59 114.46,39.03 l -0.03,712.93 c 0,176.91 5.19,182.09 -140.46,182.09 -46.88,0 -46.88,-2.59 -46.88,26.02 -0.01,31.25 -2.61,39.07 41.66,39.07 88.43,0 137.88,-5.18 189.91,-5.18 41.62,0 91.02,12.98 132.71,12.98 10.42,0.02 20.81,-7.78 20.81,-28.64 0,-13.02 -5.2,-70.25 -5.2,-78.05 0,-23.41 2.58,-41.61 13.01,-41.61 39.03,0 161.3,135.32 283.54,135.34 46.88,0 166.53,-57.29 166.53,-124.93 0,-26 -41.61,-140.48 -57.22,-140.48" /><path
         id="path20"
         style="fill:#1f335e;fill-opacity:1;fill-rule:nonzero;stroke:none"
         d="m 6024.79,3946.59 c -31.21,0 -65,2.59 -88.42,2.59 -31.21,0 -109.29,-2.59 -145.66,-2.6 -46.9,0 -70.32,65.1 -179.58,189.95 -109.26,124.86 -218.6,288.82 -234.22,288.81 -10.39,0 -46.81,-26.04 -91.05,-54.63 -41.61,-26.03 -78.05,-44.29 -78.05,-67.7 l 0.01,-163.9 c 0,-122.26 -5.2,-122.26 156.1,-122.25 59.83,0 70.23,-13.01 70.23,-33.85 0,-26.04 -12.99,-26.04 -70.23,-26.04 -39.02,0 -158.68,5.2 -241.93,5.2 -88.49,-0.01 -184.74,-5.22 -221.17,-5.22 -59.84,0 -75.44,2.62 -75.44,26.04 0,20.83 13.01,33.85 75.44,33.85 88.44,0 111.89,0 111.88,39.04 0,75.43 7.78,845.6 7.76,1394.6 -0.01,184.71 -20.83,208.13 -91.07,208.13 -106.66,-0.01 -117.06,7.79 -117.06,26.06 0,26.01 5.19,36.42 33.81,36.42 187.3,0.01 340.81,57.25 364.23,57.25 13.01,0.01 18.23,-7.79 18.23,-23.42 0,-33.81 -5.21,-143.12 -5.21,-226.38 0.02,-395.49 -15.59,-686.9 -15.58,-1110.99 0,-10.43 2.6,-18.25 10.43,-18.25 65.03,0 335.66,239.37 418.9,317.49 101.47,96.25 124.86,140.47 124.86,195.1 -0.01,41.63 -7.82,46.84 -122.28,46.83 -39.02,0 -52.04,5.21 -52.04,28.64 0,20.84 13.02,26.06 46.84,26.07 25.98,0 75.43,-7.83 106.64,-7.82 33.82,0 184.74,7.83 215.95,7.83 20.84,0 31.24,-2.63 31.24,-10.43 0,-23.46 -88.42,-135.34 -169.08,-213.39 -130.11,-127.52 -291.4,-241.98 -291.4,-260.21 0,-23.43 46.81,-72.85 228.95,-291.42 88.5,-106.64 171.73,-234.12 260.18,-234.12 62.42,0 83.25,-13.04 83.25,-33.85 0,-18.2 -18.22,-23.42 -75.46,-23.43" /><path
         id="path22"
         style="fill:#1f335e;fill-opacity:1;fill-rule:nonzero;stroke:none"
         d="m 6875.62,4672.6 c -67.67,-15.63 -327.82,-72.91 -624.41,-91.11 -41.64,-2.63 -49.42,-15.62 -49.42,-75.47 0.01,-359.08 278.35,-455.31 476.09,-455.3 171.69,0 265.4,62.46 281.03,62.46 12.96,0 20.77,-15.61 20.77,-20.84 0,-12.96 -221.14,-176.93 -431.86,-176.93 -213.36,-0.01 -530.77,104.06 -530.77,538.56 -0.01,366.88 247.13,585.48 483.9,585.49 135.28,0 301.78,-85.89 395.5,-195.17 44.19,-52.02 85.84,-114.45 85.84,-135.24 0,-10.44 -36.41,-20.84 -106.67,-36.45 m -400.71,312.17 c -197.7,-0.01 -260.11,-296.59 -260.11,-333.05 0,-13.02 0,-15.6 31.2,-15.6 135.23,0.01 275.73,33.87 470.91,65.09 28.59,5.19 31.21,10.4 31.21,26.02 -0.01,65.03 -153.49,257.54 -273.21,257.54" /><path
         id="path24"
         style="fill:#1f335e;fill-opacity:1;fill-rule:nonzero;stroke:none"
         d="m 7448.52,3957.05 c -39.06,0 -96.24,5.22 -143.13,5.22 -88.44,0 -226.32,-5.23 -262.75,-5.23 -59.86,-0.01 -65.09,5.22 -65.09,26.01 0,18.22 2.62,33.84 65.09,33.85 106.66,0 150.89,-2.58 150.89,44.23 l -0.05,1433.67 c 0,163.91 -15.61,163.91 -132.65,163.91 -46.84,-0.01 -72.9,5.17 -72.9,33.86 0,31.21 20.83,28.6 65.08,31.21 202.92,13.01 301.77,57.24 317.4,57.24 13.02,0 25.98,-13 25.98,-41.61 0,-31.22 -12.95,-124.93 -12.95,-202.97 0.02,-991.33 -12.98,-1196.86 -12.98,-1272.35 0,-215.94 18.2,-244.56 65.04,-244.56 130.05,0 124.89,-15.58 124.89,-36.46 0,-26.01 -18.25,-26.01 -111.87,-26.02" /><path
         id="path26"
         style="fill:#1f335e;fill-opacity:1;fill-rule:nonzero;stroke:none"
         d="m 8376.27,4672.66 c -67.64,-15.63 -327.82,-72.91 -624.43,-91.11 -41.61,-2.64 -49.45,-15.62 -49.45,-75.48 0.01,-359.07 278.44,-455.3 476.14,-455.29 171.73,0 265.4,62.45 280.98,62.45 13.02,0 20.81,-15.6 20.81,-20.84 0,-12.95 -221.13,-176.93 -431.85,-176.93 -213.39,0 -530.81,104.07 -530.82,538.57 -0.02,366.88 247.19,585.48 483.95,585.49 135.29,0 301.84,-85.89 395.47,-195.17 44.23,-52.03 85.84,-114.46 85.84,-135.24 0,-10.45 -36.44,-20.84 -106.64,-36.45 m -400.71,312.16 c -197.7,0 -260.16,-296.59 -260.16,-333.04 0,-13.02 0,-15.6 31.21,-15.6 135.34,0.01 275.81,33.87 470.95,65.09 28.59,5.19 31.26,10.39 31.26,26.02 0,65.03 -153.6,257.53 -273.26,257.53" /><path
         id="path28"
         style="fill:#1f335e;fill-opacity:1;fill-rule:nonzero;stroke:none"
         d="m 9554.82,4951.07 c -57.24,0 -171.72,-312.25 -377.19,-811.8 -163.98,-398.06 -281.02,-608.86 -364.23,-780.61 -28.6,-57.25 -59.86,-59.84 -117.1,-67.64 -78.05,-10.41 -96.24,-31.23 -153.48,-31.23 -44.28,0 -70.26,13 -70.26,26.01 0,15.6 122.27,31.22 210.72,143.13 93.67,117.07 317.4,424.12 317.4,502.15 0,28.64 -208.13,510.03 -351.27,848.26 -65.04,156.09 -83.28,169.11 -130.07,169.11 -52.06,-0.02 -54.62,2.59 -54.62,26 -0.01,23.41 7.78,36.45 54.62,36.45 72.82,0 91.07,-5.18 153.48,-5.18 72.82,0.01 163.88,7.82 247.16,7.82 54.63,0 65.03,-10.41 65.03,-39.07 0,-23.42 -10.4,-26.01 -65.03,-26.02 -62.41,0 -78.04,-15.61 -78.04,-75.45 0,-75.46 67.65,-166.52 223.75,-567.23 20.87,-54.63 52.08,-98.86 62.48,-98.86 18.19,0 33.82,36.45 75.43,158.75 62.41,187.3 156.08,457.93 156.08,494.36 -0.01,78.02 -0.01,93.63 -88.46,93.63 -80.6,-0.01 -91.06,-0.01 -91.06,26.03 0,33.86 7.78,33.86 54.62,33.86 70.26,0.01 117.05,-5.18 187.36,-5.18 39.05,0 109.26,10.39 145.7,10.39 41.6,0 54.62,-2.59 54.62,-31.23 0,-23.43 -36.43,-36.45 -67.64,-36.45" /><path
         id="path30"
         style="fill:#1f335e;fill-opacity:1;fill-rule:nonzero;stroke:none"
         d="m 1792.16,3297.64 c -85.31,0 -128.48,48.23 -128.48,126.46 l -0.01,226.95 h 60.4 l 0.01,-230.01 c 0,-43.67 7.88,-72.11 57.64,-72.1 49.25,0 77.94,28.43 77.94,71.6 l -0.01,230.52 h 60.44 l 0.01,-226.46 c 0,-78.72 -43.15,-126.95 -127.94,-126.96" /><path
         id="path32"
         style="fill:#1f335e;fill-opacity:1;fill-rule:nonzero;stroke:none"
         d="m 2194.89,3303.22 -146.75,233.59 h -1 l 0.02,-233.6 h -60.45 v 342.29 l 58.38,6.08 141.68,-229.03 h 1.55 l -0.02,228.54 h 60.41 l 0.02,-347.87" /><path
         id="path34"
         style="fill:#1f335e;fill-opacity:1;fill-rule:nonzero;stroke:none"
         d="m 2334.94,3651.07 h 60.42 v -347.84 l -60.41,-0.01 z" /><path
         id="path36"
         style="fill:#1f335e;fill-opacity:1;fill-rule:nonzero;stroke:none"
         d="m 2641.09,3303.24 -66.5,-0.01 -119.84,347.87 h 63.95 l 66.53,-193.98 c 0,0 6.61,-20.32 23.38,-79.73 h 3.03 c 17.29,59.41 23.88,79.22 23.88,79.22 l 66.48,194.5 h 59.43" /><path
         id="path38"
         style="fill:#1f335e;fill-opacity:1;fill-rule:nonzero;stroke:none"
         d="m 3031.5,3303.25 -211.23,-0.01 v 348.37 l 207.13,0.01 0.01,-51.29 -146.73,-0.01 v -95.97 l 130.5,0.01 v -51.3 h -130.5 v -98.52 h 155.37" /><path
         id="path40"
         style="fill:#1f335e;fill-opacity:1;fill-rule:nonzero;stroke:none"
         d="m 3298.51,3303.26 -48.23,98.03 c -10.17,20.8 -22.87,41.1 -44.72,41.1 h -28.93 v -139.13 l -60.41,-0.01 -0.02,347.88 h 111.72 c 76.67,0 114.75,-42.66 114.75,-103.08 0,-41.62 -19.78,-77.22 -65.5,-94.47 v -1 c 11.18,-6.62 17.29,-15.75 21.34,-23.87 l 66.53,-125.45 z m -72.1,296.07 h -49.78 v -106.15 l 50.78,0.01 c 36.56,0 53.32,21.31 53.32,54.33 0,32.52 -13.2,51.81 -54.32,51.81" /><path
         id="path42"
         style="fill:#1f335e;fill-opacity:1;fill-rule:nonzero;stroke:none"
         d="m 3521.35,3297.71 c -47.73,0 -86.32,18.77 -114.72,38.56 l 25.35,44.71 c 28.46,-19.3 62.46,-31.98 89.37,-31.98 40.11,0 59.92,22.36 59.92,48.23 0,65.02 -153.85,44.18 -153.86,160.98 0,61.43 51.26,98.5 112.73,98.5 36.55,0 71.61,-12.71 101.03,-30.96 l -21.82,-43.68 c -25.91,13.2 -49.28,23.34 -79.21,23.34 -33.53,0 -50.78,-18.77 -50.78,-44.66 0,-78.73 153.87,-43.18 153.87,-161.48 0,-58.88 -55.37,-101.56 -121.88,-101.56" /><path
         id="path44"
         style="fill:#1f335e;fill-opacity:1;fill-rule:nonzero;stroke:none"
         d="m 3715.25,3651.13 h 60.43 v -347.85 h -60.43 z" /><path
         id="path46"
         style="fill:#1f335e;fill-opacity:1;fill-rule:nonzero;stroke:none"
         d="m 4085.36,3599.88 h -87.84 l 0.01,-296.56 -60.41,-0.01 -0.01,296.05 h -91.92 v 51.79 l 244.73,0.01" /><path
         id="path48"
         style="fill:#1f335e;fill-opacity:1;fill-rule:nonzero;stroke:none"
         d="M 4299.58,3452.12 V 3303.3 h -60.44 v 148.82 l -109.67,199.05 h 68.05 l 46.2,-99.05 c 0,0 6.61,-12.66 24.9,-51.27 h 1.5 c 17.26,38.61 23.36,51.27 23.36,51.27 l 49.24,99.05 66.54,0.01" /><path
         id="path50"
         style="fill:#1f335e;fill-opacity:1;fill-rule:nonzero;stroke:none"
         d="m 4766.63,3297.75 c -105.11,0 -151.31,80.22 -151.32,179.75 0,104.63 46.71,179.24 151.31,179.25 104.58,0 151.31,-74.62 151.32,-179.23 0,-99.54 -46.21,-179.75 -151.31,-179.77 m -0.01,307.71 c -59.9,0 -89.38,-51.8 -89.38,-127.46 0.01,-76.16 29.49,-128.96 89.39,-128.95 59.44,0 88.85,52.79 88.85,128.47 0,75.66 -28.95,127.94 -88.86,127.94" /><path
         id="path52"
         style="fill:#1f335e;fill-opacity:1;fill-rule:nonzero;stroke:none"
         d="m 5055.96,3600.41 v -96 l 127.98,0.01 v -51.27 h -127.98 l 0.01,-149.79 h -60.4 l -0.01,348.34 203.07,0.01 v -51.29" /><path
         id="path54"
         style="fill:#1f335e;fill-opacity:1;fill-rule:nonzero;stroke:none"
         d="m 5579.89,3297.79 c -107.1,-0.01 -153.85,72.59 -153.85,179.24 0,104.6 51.3,179.75 155.87,179.75 43.14,0 79.23,-14.68 115.75,-44.69 l -31.43,-40.59 c -26.93,22.33 -51.3,34 -84.32,34 -61.43,-0.01 -93.93,-46.22 -93.91,-127.96 0,-82.29 30.43,-128.46 94.93,-128.46 30.98,0 63.5,14.19 91.93,40.12 l 30.98,-39.61 c -35.54,-32.49 -79.21,-51.8 -125.95,-51.8" /><path
         id="path56"
         style="fill:#1f335e;fill-opacity:1;fill-rule:nonzero;stroke:none"
         d="m 5991.11,3303.37 -28.93,83.81 -140.14,-0.01 -28.95,-83.81 h -56.38 l 122.38,342.78 70.56,5.6 123.42,-348.37 z m -71.07,203.67 c 0,0 -4.09,11.12 -27.97,83.22 h -1 c -23.36,-72.1 -27.42,-83.23 -27.42,-83.23 l -26.9,-76.72 110.18,0.01" /><path
         id="path58"
         style="fill:#1f335e;fill-opacity:1;fill-rule:nonzero;stroke:none"
         d="m 6307.91,3303.38 -205.66,-0.01 -0.01,347.88 h 60.41 l 0.01,-296.58 h 149.81" /><path
         id="path60"
         style="fill:#1f335e;fill-opacity:1;fill-rule:nonzero;stroke:none"
         d="m 6371.32,3651.23 h 60.41 v -347.84 l -60.41,-0.01 z" /><path
         id="path62"
         style="fill:#1f335e;fill-opacity:1;fill-rule:nonzero;stroke:none"
         d="m 6570.8,3600.47 v -96 l 127.95,0.01 v -51.27 H 6570.8 l 0.01,-149.79 h -60.44 l -0.01,348.34 203.13,0.01 v -51.29" /><path
         id="path64"
         style="fill:#1f335e;fill-opacity:1;fill-rule:nonzero;stroke:none"
         d="m 6903.86,3297.84 c -105.11,0 -151.34,80.21 -151.35,179.75 0,104.61 46.7,179.24 151.34,179.24 104.58,0.01 151.28,-74.62 151.29,-179.23 0,-99.54 -46.2,-179.76 -151.28,-179.76 m -0.01,307.71 c -59.94,0 -89.39,-51.8 -89.39,-127.47 0,-76.16 29.46,-128.95 89.4,-128.95 59.41,0 88.84,52.8 88.83,128.47 0,75.65 -28.93,127.95 -88.84,127.95" /><path
         id="path66"
         style="fill:#1f335e;fill-opacity:1;fill-rule:nonzero;stroke:none"
         d="m 7289.66,3303.42 -48.23,98.03 c -10.13,20.8 -22.85,41.1 -44.69,41.1 h -28.95 v -139.13 l -60.41,-0.01 v 347.88 h 111.72 c 76.67,0 114.72,-42.66 114.72,-103.08 0,-41.62 -19.75,-77.22 -65.47,-94.47 v -1 c 11.19,-6.62 17.3,-15.75 21.31,-23.87 l 66.53,-125.45 z m -72.09,296.07 h -49.78 v -106.15 l 50.78,0.01 c 36.6,0 53.34,21.31 53.34,54.33 0,32.52 -13.19,51.81 -54.34,51.81" /><path
         id="path68"
         style="fill:#1f335e;fill-opacity:1;fill-rule:nonzero;stroke:none"
         d="m 7611.53,3303.43 -146.7,233.6 h -1.06 l 0.01,-233.6 h -60.41 l -0.01,342.28 58.41,6.09 141.63,-229.03 h 1.56 v 228.54 h 60.41 l 0.01,-347.87" /><path
         id="path70"
         style="fill:#1f335e;fill-opacity:1;fill-rule:nonzero;stroke:none"
         d="m 7741.41,3651.28 h 60.42 v -347.84 h -60.41 z" /><path
         id="path72"
         style="fill:#1f335e;fill-opacity:1;fill-rule:nonzero;stroke:none"
         d="m 8105.46,3303.45 -28.93,83.81 H 7936.4 l -28.93,-83.81 -56.4,-0.01 122.37,342.78 70.59,5.6 123.4,-348.36 z m -71.05,203.67 c 0,0 -4.11,11.12 -27.98,83.22 h -1 c -23.36,-72.1 -27.42,-83.22 -27.42,-83.22 l -26.93,-76.72 h 110.21" /><path
         id="path74"
         style="fill:#dd9815;fill-opacity:1;fill-rule:nonzero;stroke:none"
         d="m 11033.1,4318.92 c 0,167.9 -138,234.6 -363.4,301.29 -202.4,59.8 -418.6,147.21 -418.6,402.5 0,227.68 193.2,391 460,391 165.6,0 310.5,-46.01 432.4,-124.2 l -52.9,-128.8 c -108.1,73.59 -248.4,119.59 -377.2,119.59 -216.2,0 -319.7,-115 -319.7,-246.09 0,-158.7 142.6,-218.5 363.4,-287.5 207,-62.1 416.3,-156.39 416.3,-416.29 0,-236.89 -197.8,-413.99 -485.3,-413.99 -172.5,0 -331.2,50.6 -462.3,133.39 l 52.9,131.1 c 115,-78.19 250.7,-133.4 414,-133.4 200.1,0 340.4,119.6 340.4,271.4" /><path
         id="path76"
         style="fill:#dd9815;fill-opacity:1;fill-rule:nonzero;stroke:none"
         d="m 11653.6,3911.82 c -200.1,0 -289.8,110.41 -282.9,331.2 l 16.1,623.28 -161,9.21 6.9,89.7 158.7,36.8 6.9,239.19 h 135.7 l -6.9,-246.09 h 351.9 l -6.9,-126.49 h -349.6 l -16.1,-630.2 c -4.6,-133.4 43.7,-197.79 154.1,-197.79 69,0 138,23 202.4,50.58 l 25.3,-124.18 c -73.6,-34.5 -158.7,-55.21 -234.6,-55.21" /><path
         id="path78"
         style="fill:#dd9815;fill-opacity:1;fill-rule:nonzero;stroke:none"
         d="m 12643.5,4486.82 c -361.1,-41.4 -489.9,-121.89 -489.9,-262.2 0,-112.69 92,-183.99 216.2,-183.99 112.7,0 209.3,64.39 273.7,138 z m 2.3,-414 c -71.3,-87.39 -184,-156.39 -308.2,-156.39 -193.2,0 -333.5,124.2 -333.5,292.1 0,190.89 149.5,347.27 639.4,374.89 v 62.1 c 0,165.6 -73.6,250.69 -248.4,250.69 -115,0 -255.3,-59.8 -345,-126.5 l -32.2,133.4 c 94.3,66.69 253,126.5 391,126.5 243.8,0 379.5,-110.4 377.2,-377.19 v -505.99 c 0,-75.9 13.8,-108.11 105.8,-105.8 l -9.2,-117.31 c -138,-9.19 -213.9,46 -230,149.5" /><path
         id="path80"
         style="fill:#dd9815;fill-opacity:1;fill-rule:nonzero;stroke:none"
         d="m 13346.4,3911.82 c -200.1,0 -289.8,110.41 -282.9,331.2 l 16.1,623.28 -161,9.21 6.9,89.7 158.7,36.8 6.9,239.19 h 135.7 l -6.9,-246.09 h 351.9 l -6.9,-126.49 h -349.6 l -16.1,-630.2 c -4.6,-133.4 43.7,-197.79 154.1,-197.79 69,0 138,23 202.4,50.58 l 25.3,-124.18 c -73.6,-34.5 -158.7,-55.21 -234.6,-55.21" /><path
         id="path82"
         style="fill:#dd9815;fill-opacity:1;fill-rule:nonzero;stroke:none"
         d="m 13753.5,3946.33 v 1053.38 l 142.6,29.9 V 3946.33 Z m 71.3,1294.87 c -64.4,0 -96.6,50.6 -96.6,105.8 0,52.9 32.2,101.2 96.6,101.2 64.4,0 96.6,-48.3 96.6,-101.2 0,-55.2 -32.2,-105.8 -96.6,-105.8" /><path
         id="path84"
         style="fill:#dd9815;fill-opacity:1;fill-rule:nonzero;stroke:none"
         d="m 14425.8,3916.43 c -124.2,0 -255.3,36.8 -345,94.3 l 39.1,131.1 c 89.7,-59.8 202.4,-96.6 310.5,-96.6 126.5,0 236.9,62.1 236.9,177.1 0,126.49 -133.4,163.29 -264.5,204.7 -144.9,43.68 -305.9,114.99 -305.9,298.99 0,190.89 158.7,303.59 356.5,303.59 115,0 230,-32.2 319.7,-78.2 l -41.4,-128.8 c -87.4,48.3 -195.5,78.19 -287.5,78.19 -128.8,0 -211.6,-59.79 -211.6,-160.98 0,-119.61 124.2,-156.4 259.9,-197.8 149.5,-43.7 310.5,-112.7 310.5,-308.2 0,-193.19 -165.6,-317.39 -377.2,-317.39" /><path
         id="path86"
         style="fill:#dd9815;fill-opacity:1;fill-rule:nonzero;stroke:none"
         d="m 15333.8,3911.82 c -200.1,0 -289.8,110.41 -282.9,331.2 l 16.1,623.28 -161,9.21 6.9,89.7 158.7,36.8 6.9,239.19 h 135.7 l -6.9,-246.09 h 351.9 l -6.9,-126.49 h -349.6 l -16.1,-630.2 c -4.6,-133.4 43.7,-197.79 154.1,-197.79 69,0 138,23 202.4,50.58 l 25.3,-124.18 c -73.6,-34.5 -158.7,-55.21 -234.6,-55.21" /><path
         id="path88"
         style="fill:#dd9815;fill-opacity:1;fill-rule:nonzero;stroke:none"
         d="m 15740.9,3946.33 v 1053.38 l 142.6,29.9 V 3946.33 Z m 71.3,1294.87 c -64.4,0 -96.6,50.6 -96.6,105.8 0,52.9 32.2,101.2 96.6,101.2 64.4,0 96.6,-48.3 96.6,-101.2 0,-55.2 -32.2,-105.8 -96.6,-105.8" /><path
         id="path90"
         style="fill:#dd9815;fill-opacity:1;fill-rule:nonzero;stroke:none"
         d="m 16603.6,3916.43 c -317.4,0 -515.2,227.7 -515.2,554.28 0,328.9 218.5,558.9 517.5,558.9 128.8,0 239.2,-32.2 328.9,-89.69 l -36.8,-128.8 c -80.5,52.89 -181.7,85.09 -292.1,85.09 -227.7,0 -370.3,-170.19 -370.3,-420.89 0,-257.59 149.5,-425.5 372.6,-425.5 105.8,0 211.6,34.5 292.1,87.41 l 29.9,-131.1 c -89.7,-55.2 -204.7,-89.7 -326.6,-89.7" /><path
         id="path92"
         style="fill:#dd9815;fill-opacity:1;fill-rule:nonzero;stroke:none"
         d="m 17420.8,3916.43 c -124.2,0 -255.3,36.8 -345,94.3 l 39.1,131.1 c 89.7,-59.8 202.4,-96.6 310.5,-96.6 126.5,0 236.9,62.1 236.9,177.1 0,126.49 -133.4,163.29 -264.5,204.7 -144.9,43.68 -305.9,114.99 -305.9,298.99 0,190.89 158.7,303.59 356.5,303.59 115,0 230,-32.2 319.7,-78.2 l -41.4,-128.8 c -87.4,48.3 -195.5,78.19 -287.5,78.19 -128.8,0 -211.6,-59.79 -211.6,-160.98 0,-119.61 124.2,-156.4 259.9,-197.8 149.5,-43.7 310.5,-112.7 310.5,-308.2 0,-193.19 -165.6,-317.39 -377.2,-317.39" /></g></g></svg>