<?xml version="1.0" encoding="utf-8"?>
<svg width="241px" height="38px" viewbox="0 0 241 38" version="1.1" xmlns:xlink="http://www.w3.org/1999/xlink" xmlns="http://www.w3.org/2000/svg">
  <defs>
    <path d="M0 0L21.2886 0L21.2886 27.2675L0 27.2675L0 0Z" transform="translate(0 0.18968728)" id="path_1" />
    <clipPath id="mask_1">
      <use xlink:href="#path_1" />
    </clipPath>
  </defs>
  <g id="BERK_LOGO">
    <g id="Group-3" transform="translate(0 0.30122182)">
      <path d="M0 0L21.2886 0L21.2886 27.2675L0 27.2675L0 0Z" transform="translate(0 0.18968728)" id="Clip-2" fill="none" fill-rule="evenodd" stroke="none" />
      <g clip-path="url(#mask_1)">
        <path d="M11.2263 27.2675C9.41121 27.2675 7.58743 26.8311 5.68256 26.8311C3.85878 26.8311 2.9061 27.0039 1.51399 27.0039C1.08281 27.0039 0.781273 26.9627 0.781273 26.5268C0.781273 26.082 1.04202 25.9917 1.99421 25.9917C3.94861 25.9917 4.0297 25.9092 4.0297 25.2509L4.0297 5.02053C4.0297 1.539 3.33777 1.14382 2.12483 1.14382C0.170919 1.14382 0 1.10307 0 0.575836C0 0.263127 0.130131 0.222382 0.862848 0.222382C2.21417 0.222382 3.55773 0.263127 5.07172 0.263127C5.98361 0.263127 8.06765 0 11.9667 0C17.6007 0 20.0266 2.94644 20.0266 6.07402C20.0266 9.19325 18.1621 10.7323 16.7787 11.7038C15.9561 12.2717 15.0035 12.7573 15.0035 12.8888C15.0035 12.9796 15.826 13.1937 16.6889 13.6379C18.7321 14.6914 21.2886 16.1892 21.2886 20.0163C21.2886 24.9382 17.2589 27.2675 11.2263 27.2675M10.6645 1.05349C7.80691 1.05349 7.67677 1.45653 7.67677 2.33722L7.67677 11.8766C7.67677 12.5845 8.23857 12.4936 9.28059 12.4936C11.9182 12.4936 13.742 12.7573 13.742 12.7573C15.0035 11.7857 16.4286 10.9546 16.4286 7.48145C16.4286 5.28415 14.6131 1.05349 10.6645 1.05349M9.23204 13.3252C8.0191 13.3252 7.67677 13.5064 7.67677 14.4691L7.67677 22.3457C7.67677 22.7409 7.80691 25.2018 8.18953 25.6461C8.66975 26.1728 10.0541 26.4777 11.4462 26.4777C14.7432 26.4777 17.1691 24.1891 17.1691 20.3624C17.1691 16.4032 13.9619 13.3252 9.23204 13.3252" transform="translate(-4.8556452E-05 0.18968728)" id="Fill-1" fill="#FEFEFE" fill-rule="evenodd" stroke="none" />
      </g>
    </g>
    <path d="M12.4474 5.39116C11.4627 5.6214 7.69328 6.4692 3.39458 6.73233C2.79248 6.77356 2.67886 6.96305 2.67886 7.84375C2.67886 13.1195 6.70856 14.5348 9.58213 14.5348C12.0653 14.5348 13.4249 13.6217 13.6521 13.6217C13.8396 13.6217 13.9542 13.852 13.9542 13.9261C13.9542 14.1151 10.746 16.5269 7.69328 16.5269C4.59975 16.5269 0 14.9958 0 8.60907C0 3.2184 3.58201 0 7.00961 0C8.97178 0 11.3894 1.25918 12.749 2.8728C13.3841 3.63813 13.9862 4.55171 13.9862 4.85607C13.9862 5.01267 13.4652 5.16878 12.4474 5.39116M6.63475 0.806564C3.76944 0.806564 2.86629 5.16878 2.86629 5.70387C2.86629 5.89287 2.86629 5.93411 3.32175 5.93411C5.28343 5.93411 7.31843 5.43191 10.1439 4.97144C10.5586 4.89731 10.5994 4.82318 10.5994 4.59295C10.5994 3.63813 8.36919 0.806564 6.63475 0.806564" transform="translate(22.663918 11.445545)" id="Fill-4" fill="#FEFEFE" fill-rule="evenodd" stroke="none" />
    <path d="M11.3894 4.09075C10.8602 4.09075 10.4047 2.51836 8.52412 2.51836C6.33422 2.51836 5.5039 3.44029 5.5039 5.04556L5.5039 12.9301C5.5039 14.7985 5.61753 14.7985 8.41001 14.7985C9.38696 14.7985 9.42775 14.9138 9.42775 15.2594C9.42775 15.6791 9.38696 15.6463 8.41001 15.6463C7.88074 15.6463 5.35726 15.4489 4.14432 15.4489C2.86583 15.4489 1.58783 15.6463 1.05905 15.6463C0.187944 15.6463 0.114624 15.6463 0.114624 15.2594C0.114624 14.8804 0.154926 14.7985 1.05905 14.7985C2.60557 14.7985 2.71968 14.7656 2.71968 14.2305L2.71968 3.74465C2.71968 1.14431 2.793 1.07018 0.676422 1.07018C0.000516446 1.07018 0.000516446 1.10307 0.000516446 0.683345C0.000516446 0.222382 -0.040271 0.115364 0.603102 0.115364C1.88936 0.115364 2.60557 0.189491 3.35431 0.189491C3.9569 0.189491 4.67359 0 5.28394 0C5.43058 0 5.58548 0.115364 5.58548 0.419727C5.58548 0.609218 5.5039 1.44867 5.5039 1.56404C5.5039 1.90964 5.54469 2.18111 5.69133 2.18111C6.26041 2.18111 8.03564 0.189491 9.80212 0.189491C10.4863 0.189491 12.2202 1.02895 12.2202 2.025C12.2202 2.40349 11.6176 4.09075 11.3894 4.09075" transform="translate(37.520657 11.717166)" id="Fill-6" fill="#FEFEFE" fill-rule="evenodd" stroke="none" />
    <path d="M17.576 26.9303C17.12 26.9303 16.6316 26.8974 16.2897 26.8974C15.842 26.8974 14.7107 26.9303 14.1814 26.9303C13.5055 26.9303 13.1637 25.9755 11.5763 24.14C9.9968 22.3049 8.40949 19.8931 8.18128 19.8931C8.03512 19.8931 7.50586 20.2721 6.86297 20.6997C6.2599 21.0787 5.73063 21.3501 5.73063 21.6874L5.73063 24.0987C5.73063 25.9013 5.6578 25.9013 7.99433 25.9013C8.86544 25.9013 9.01159 26.0908 9.01159 26.3952C9.01159 26.782 8.82465 26.782 7.99433 26.782C7.43205 26.782 5.69859 26.6996 4.4939 26.6996C3.20715 26.6996 1.81504 26.782 1.28577 26.782C0.414672 26.782 0.186942 26.7408 0.186942 26.3952C0.186942 26.0908 0.382625 25.9013 1.28577 25.9013C2.56427 25.9013 2.9061 25.9013 2.9061 25.325C2.9061 24.2141 3.01973 12.8888 3.01973 4.82318C3.01973 2.10698 2.71868 1.76138 1.70142 1.76138C0.15441 1.76138 0 1.64651 0 1.37455C0 0.996055 0.0810893 0.839945 0.496247 0.839945C3.20715 0.839945 5.42958 0 5.77142 0C5.95885 0 6.03217 0.115364 6.03217 0.346091C6.03217 0.839945 5.95885 2.45307 5.95885 3.67102C5.95885 9.48976 5.73063 13.7695 5.73063 20.0085C5.73063 20.1567 5.77142 20.2721 5.88553 20.2721C6.82995 20.2721 10.7538 16.7572 11.959 15.605C13.4239 14.1892 13.7658 13.5393 13.7658 12.7411C13.7658 12.1235 13.6521 12.0499 11.991 12.0499C11.4297 12.0499 11.2423 11.9757 11.2423 11.6301C11.2423 11.3253 11.4297 11.2428 11.9182 11.2428C12.2926 11.2428 13.0092 11.3582 13.4647 11.3582C13.9532 11.3582 16.1431 11.2428 16.5908 11.2428C16.9001 11.2428 17.0467 11.284 17.0467 11.3994C17.0467 11.745 15.7687 13.391 14.5961 14.5348C12.7077 16.4116 10.3712 18.0988 10.3712 18.3625C10.3712 18.7081 11.0548 19.4321 13.6929 22.6505C14.9709 24.2141 16.1839 26.0908 17.4619 26.0908C18.3655 26.0908 18.6666 26.2798 18.6666 26.5847C18.6666 26.8562 18.4063 26.9303 17.576 26.9303" transform="translate(49.171032 0.5812855)" id="Fill-8" fill="#FEFEFE" fill-rule="evenodd" stroke="none" />
    <path d="M12.4479 5.39116C11.4627 5.6214 7.69328 6.4692 3.39507 6.73233C2.79248 6.77356 2.67886 6.96305 2.67886 7.84375C2.67886 13.1195 6.71633 14.5348 9.58213 14.5348C12.0653 14.5348 13.4249 13.6217 13.6521 13.6217C13.8396 13.6217 13.9542 13.852 13.9542 13.9261C13.9542 14.1151 10.746 16.5269 7.69328 16.5269C4.59975 16.5269 0 14.9958 0 8.60907C0 3.2184 3.58201 0 7.01738 0C8.97954 0 11.3894 1.25918 12.749 2.8728C13.3919 3.63813 13.9949 4.55171 13.9949 4.85607C13.9949 5.01267 13.4657 5.16878 12.4479 5.39116M6.63524 0.806564C3.76944 0.806564 2.86629 5.16878 2.86629 5.70387C2.86629 5.89287 2.86629 5.93411 3.32175 5.93411C5.28391 5.93411 7.31891 5.43191 10.1439 4.97144C10.5591 4.89731 10.5994 4.82318 10.5994 4.59295C10.5994 3.63813 8.36919 0.806564 6.63524 0.806564" transform="translate(66.632614 11.445545)" id="Fill-10" fill="#FEFEFE" fill-rule="evenodd" stroke="none" />
    <path d="M6.82995 26.8233C6.2599 26.8233 5.42958 26.7408 4.75416 26.7408C3.4679 26.7408 1.4732 26.8233 0.944423 26.8233C0.0815748 26.8233 0 26.7408 0 26.4364C0 26.1728 0.0407874 25.9426 0.944423 25.9426C2.49046 25.9426 3.13432 25.9755 3.13432 25.2921L3.13432 4.21396C3.13432 1.80262 2.9061 1.80262 1.21294 1.80262C0.52878 1.80262 0.15441 1.72849 0.15441 1.30042C0.15441 0.8478 0.45546 0.880691 1.09883 0.8478C4.03747 0.650455 5.47037 0 5.69859 0C5.88601 0 6.07247 0.197836 6.07247 0.617564C6.07247 1.07853 5.88601 2.45258 5.88601 3.59689C5.88601 18.173 5.69859 21.1935 5.69859 22.3045C5.69859 25.4816 5.95885 25.9013 6.64252 25.9013C8.52311 25.9013 8.45028 26.1316 8.45028 26.4364C8.45028 26.8233 8.18128 26.8233 6.82995 26.8233" transform="translate(80.55404 0.54019636)" id="Fill-12" fill="#FEFEFE" fill-rule="evenodd" stroke="none" />
    <path d="M12.4392 5.39116C11.4622 5.6214 7.69328 6.4692 3.39458 6.73233C2.792 6.77356 2.67789 6.96305 2.67789 7.84375C2.67789 13.1195 6.70759 14.5348 9.57388 14.5348C12.0648 14.5348 13.4239 13.6217 13.6521 13.6217C13.8396 13.6217 13.9532 13.852 13.9532 13.9261C13.9532 14.1151 10.746 16.5269 7.69328 16.5269C4.59927 16.5269 0 14.9958 0 8.60907C0 3.2184 3.58201 0 7.00912 0C8.9708 0 11.3889 1.25918 12.7485 2.8728C13.3831 3.63813 13.9862 4.55171 13.9862 4.85607C13.9862 5.01267 13.4647 5.16878 12.4392 5.39116M6.63475 0.806564C3.76944 0.806564 2.86532 5.16878 2.86532 5.70387C2.86532 5.89287 2.86532 5.93411 3.31301 5.93411C5.27517 5.93411 7.31017 5.43191 10.143 4.97144C10.5586 4.89731 10.5994 4.82318 10.5994 4.59295C10.5994 3.63813 8.3687 0.806564 6.63475 0.806564" transform="translate(88.38551 11.445545)" id="Fill-14" fill="#FEFEFE" fill-rule="evenodd" stroke="none" />
    <path d="M15.8017 0.995564C14.9714 0.995564 13.3103 5.58802 10.3309 12.9301C7.95403 18.7817 6.26087 21.8847 5.0557 24.4114C4.64054 25.2509 4.1846 25.2838 3.35428 25.3991C2.22243 25.5553 1.96217 25.8596 1.13185 25.8596C0.488478 25.8596 0.114108 25.6706 0.114108 25.4811C0.114108 25.2509 1.88885 25.0202 3.16685 23.3741C4.52643 21.6545 7.7666 17.144 7.7666 15.9914C7.7666 15.5716 4.75416 8.49371 2.67886 3.52227C1.73395 1.22629 1.47369 1.0368 0.790013 1.0368C0.0407874 1.0368 0 0.995564 0 0.649964C0 0.304364 0.114108 0.114873 0.790013 0.114873C1.84806 0.114873 2.10881 0.189 3.0207 0.189C4.07049 0.189 5.38977 0.0741273 6.60271 0.0741273C7.39223 0.0741273 7.53839 0.230236 7.53839 0.649964C7.53839 0.995564 7.39223 1.0368 6.60271 1.0368C5.69082 1.0368 5.47086 1.26753 5.47086 2.14822C5.47086 3.2508 6.44733 4.59245 8.71054 10.4853C9.01208 11.284 9.46802 11.934 9.61466 11.934C9.88318 11.934 10.1031 11.3989 10.7052 9.60464C11.6171 6.84769 12.9685 2.87231 12.9685 2.33722C12.9685 1.18505 12.9685 0.954818 11.6905 0.954818C10.5183 0.954818 10.3717 0.954818 10.3717 0.575836C10.3717 0.0741273 10.4858 0.0741273 11.1612 0.0741273C12.1789 0.0741273 12.8548 0.156109 13.8803 0.156109C14.4421 0.156109 15.4599 0 15.9892 0C16.5913 0 16.7787 0.0407455 16.7787 0.460964C16.7787 0.806564 16.2494 0.995564 15.8017 0.995564" transform="translate(102.110725 11.750401)" id="Fill-16" fill="#FEFEFE" fill-rule="evenodd" stroke="none" />
    <path d="M11.7599 16.1234C11.7599 13.6507 9.74965 12.6684 6.46675 11.6861C3.51792 10.8054 0.368543 9.51824 0.368543 5.75836C0.368543 2.40496 3.18288 0 7.06933 0C9.4821 0 11.5924 0.677455 13.3686 1.82913L12.598 3.726C11.0228 2.64207 8.97906 1.96462 7.10284 1.96462C3.95347 1.96462 2.44579 3.65776 2.44579 5.589C2.44579 7.92622 4.52303 8.80691 7.73941 9.82309C10.7553 10.7377 13.8036 12.1264 13.8036 15.9541C13.8036 19.4429 10.9223 22.0511 6.73429 22.0511C4.22198 22.0511 1.90973 21.3059 0 20.0865L0.770591 18.1558C2.44579 19.3075 4.42301 20.1204 6.8013 20.1204C9.71615 20.1204 11.7599 18.359 11.7599 16.1234" transform="translate(128.56676 5.8764763)" id="Fill-18" fill="#CFEDCD" fill-rule="evenodd" stroke="none" />
    <path d="M6.23174 19.5784C3.31689 19.5784 2.01072 17.9525 2.11075 14.7008L2.34528 5.52125L0 5.38576L0.100512 4.06473L2.41228 3.52276L2.5128 0L4.48953 0L4.38902 3.62438L9.51561 3.62438L9.4151 5.48738L4.32201 5.48738L4.08748 14.7685C4.02047 16.7331 4.72454 17.6816 6.33225 17.6816C7.33737 17.6816 8.34297 17.3428 9.28059 16.9364L9.64914 18.7655C8.57701 19.2736 7.33737 19.5784 6.23174 19.5784" transform="translate(143.67674 8.416882)" id="Fill-20" fill="#CFEDCD" fill-rule="evenodd" stroke="none" />
    <path d="M9.31458 7.99396C4.05446 8.60367 2.17824 9.78922 2.17824 11.8555C2.17824 13.5152 3.51791 14.5653 5.32761 14.5653C6.96931 14.5653 8.37599 13.6168 9.31458 12.5329L9.31458 7.99396ZM9.34809 14.0911C8.30947 15.3782 6.66777 16.3944 4.85856 16.3944C2.04374 16.3944 0 14.5653 0 12.0926C0 9.28113 2.17824 6.97778 9.31458 6.57131L9.31458 5.65675C9.31458 3.21791 8.24246 1.96462 5.69616 1.96462C4.02096 1.96462 1.97722 2.84531 0.670565 3.82762L0.201024 1.863C1.57517 0.880691 3.88694 0 5.89718 0C9.44811 0 11.4253 1.62589 11.3918 5.55513L11.3918 13.0071C11.3918 14.1249 11.5924 14.5991 12.933 14.5653L12.799 16.2928C10.7888 16.4283 9.68313 15.6153 9.44811 14.0911L9.34809 14.0911Z" transform="translate(154.90004 11.533173)" id="Fill-22" fill="#CFEDCD" fill-rule="evenodd" stroke="none" />
    <path d="M6.23174 19.5784C3.31689 19.5784 2.01024 17.9525 2.11075 14.7008L2.34528 5.52125L0 5.38576L0.100512 4.06473L2.41228 3.52276L2.5128 0L4.48953 0L4.38902 3.62438L9.51512 3.62438L9.41461 5.48738L4.32152 5.48738L4.08748 14.7685C4.01999 16.7331 4.72406 17.6816 6.33225 17.6816C7.33688 17.6816 8.34248 17.3428 9.28011 16.9364L9.64914 18.7655C8.57701 19.2736 7.33688 19.5784 6.23174 19.5784" transform="translate(168.40262 8.416882)" id="Fill-24" fill="#CFEDCD" fill-rule="evenodd" stroke="none" />
    <path d="M0.368543 22.1189L0.368543 6.60518L2.44579 6.16484L2.44579 22.1189L0.368543 22.1189ZM1.40765 3.04855C0.469055 3.04855 0 2.30335 0 1.4904C0 0.711818 0.469055 0 1.40765 0C2.34528 0 2.81433 0.711818 2.81433 1.4904C2.81433 2.30335 2.34528 3.04855 1.40765 3.04855L1.40765 3.04855Z" transform="translate(180.59756 5.3682384)" id="Fill-26" fill="#CFEDCD" fill-rule="evenodd" stroke="none" />
    <path d="M5.02559 16.3944C3.21638 16.3944 1.30714 15.8524 0 15.0056L0.569567 13.0744C1.87671 13.9556 3.5184 14.4975 5.09309 14.4975C6.9358 14.4975 8.54351 13.5825 8.54351 11.8893C8.54351 10.0258 6.60028 9.48436 4.69104 8.87465C2.5798 8.23107 0.235013 7.18053 0.235013 4.4712C0.235013 1.65927 2.54679 0 5.42764 0C7.10284 0 8.77852 0.473727 10.0847 1.15118L9.4821 3.04805C8.20895 2.33673 6.63427 1.89687 5.29411 1.89687C3.4174 1.89687 2.21126 2.77756 2.21126 4.26796C2.21126 6.02935 4.02096 6.57082 5.99721 7.18053C8.17496 7.8246 10.5202 8.84029 10.5202 11.72C10.5202 14.5648 8.10844 16.3944 5.02559 16.3944" transform="translate(186.12552 11.53332)" id="Fill-28" fill="#CFEDCD" fill-rule="evenodd" stroke="none" />
    <path d="M6.23174 19.5784C3.31689 19.5784 2.01024 17.9525 2.11075 14.7008L2.34528 5.52125L0 5.38576L0.100512 4.06473L2.41228 3.52276L2.5128 0L4.48953 0L4.38902 3.62438L9.51512 3.62438L9.41461 5.48738L4.32152 5.48738L4.08748 14.7685C4.01999 16.7331 4.72406 17.6816 6.33225 17.6816C7.33688 17.6816 8.34248 17.3428 9.28011 16.9364L9.64914 18.7655C8.57701 19.2736 7.33688 19.5784 6.23174 19.5784" transform="translate(197.88547 8.416882)" id="Fill-30" fill="#CFEDCD" fill-rule="evenodd" stroke="none" />
    <path d="M0.369029 22.1189L0.369029 6.60518L2.44579 6.16484L2.44579 22.1189L0.369029 22.1189ZM1.40765 3.04855C0.469541 3.04855 0 2.30335 0 1.4904C0 0.711818 0.469541 0 1.40765 0C2.34528 0 2.81482 0.711818 2.81482 1.4904C2.81482 2.30335 2.34528 3.04855 1.40765 3.04855L1.40765 3.04855Z" transform="translate(210.08041 5.3682384)" id="Fill-32" fill="#CFEDCD" fill-rule="evenodd" stroke="none" />
    <path d="M7.50489 16.3944C2.88183 16.3944 0 13.041 0 8.23107C0 3.38727 3.18336 0 7.53839 0C9.4151 0 11.0228 0.473727 12.3299 1.32104L11.7934 3.21791C10.6208 2.43835 9.14658 1.96413 7.53839 1.96413C4.2215 1.96413 2.14425 4.4712 2.14425 8.16284C2.14425 11.9571 4.32201 14.4298 7.57238 14.4298C9.11356 14.4298 10.6543 13.9217 11.8269 13.1426L12.2629 15.0734C10.9558 15.8863 9.28059 16.3944 7.50489 16.3944" transform="translate(215.9102 11.53332)" id="Fill-34" fill="#CFEDCD" fill-rule="evenodd" stroke="none" />
    <path d="M5.02559 16.3944C3.21638 16.3944 1.30714 15.8524 0 15.0056L0.569567 13.0744C1.87671 13.9556 3.5184 14.4975 5.09309 14.4975C6.9358 14.4975 8.54351 13.5825 8.54351 11.8893C8.54351 10.0258 6.60028 9.48436 4.69104 8.87465C2.5798 8.23107 0.235013 7.18053 0.235013 4.4712C0.235013 1.65927 2.54679 0 5.42764 0C7.10284 0 8.77852 0.473727 10.0847 1.15118L9.4821 3.04805C8.20895 2.33673 6.63427 1.89687 5.29411 1.89687C3.4174 1.89687 2.21126 2.77756 2.21126 4.26796C2.21126 6.02935 4.02096 6.57082 5.99721 7.18053C8.17496 7.8246 10.5202 8.84029 10.5202 11.72C10.5202 14.5648 8.10844 16.3944 5.02559 16.3944" transform="translate(230.2161 11.53332)" id="Fill-36" fill="#CFEDCD" fill-rule="evenodd" stroke="none" />
  </g>
</svg>